<?xml version="1.0" encoding="UTF-8"?>
<!DOCTYPE svg PUBLIC "-//W3C//DTD SVG 1.1//EN" "http://www.w3.org/Graphics/SVG/1.1/DTD/svg11.dtd">
<!-- Creator: CorelDRAW -->
<svg xmlns="http://www.w3.org/2000/svg" xml:space="preserve" width="600mm" height="450mm" style="shape-rendering:geometricPrecision; text-rendering:geometricPrecision; image-rendering:optimizeQuality; fill-rule:evenodd; clip-rule:evenodd"
viewBox="0 0 600 450"
 xmlns:xlink="http://www.w3.org/1999/xlink">
 <defs>
  <style type="text/css">
   <![CDATA[
    .str0 {stroke:#E25920;stroke-width:0.0762}
    .fil0 {fill:white}
   ]]>
  </style>
 </defs>
 <g id="Layer_x0020_1">
  <metadata id="CorelCorpID_0Corel-Layer"/>
  <g id="_30813352">
   <polygon id="base" class="fil0 str0" points="5.3395,94.0196 14.838,94.0196 28.0751,94.0196 28.0751,91.0192 41.3096,91.0192 41.3096,94.0196 54.5467,94.0196 54.5467,91.0192 67.7812,91.0192 67.7812,94.0196 81.0156,94.0196 81.0156,91.0192 94.2527,91.0192 94.2527,94.0196 107.487,94.0196 107.487,91.0192 120.722,91.0192 120.722,94.0196 133.959,94.0196 133.959,91.0192 147.193,91.0192 147.193,94.0196 160.428,94.0196 160.428,91.0192 173.665,91.0192 173.665,94.0196 186.899,94.0196 186.899,91.0192 200.134,91.0192 200.134,94.0196 213.371,94.0196 213.371,91.0192 226.605,91.0192 226.605,94.0196 239.84,94.0196 249.341,94.0196 249.341,94.5196 249.341,98.2264 252.341,98.2264 252.341,101.931 249.341,101.931 249.341,105.637 252.341,105.637 252.341,109.344 249.341,109.344 249.341,113.048 252.341,113.048 252.341,116.755 249.341,116.755 249.341,120.462 252.341,120.462 252.341,124.166 249.341,124.166 249.341,127.873 252.341,127.873 252.341,131.58 249.341,131.58 249.341,135.284 252.341,135.284 252.341,138.991 249.341,138.991 249.341,142.698 252.341,142.698 252.341,146.402 249.341,146.402 249.341,150.109 252.341,150.109 252.341,153.815 249.341,153.815 249.341,157.52 249.341,158.02 239.84,158.02 226.605,158.02 226.605,161.02 213.371,161.02 213.371,158.02 200.134,158.02 200.134,161.02 186.899,161.02 186.899,158.02 173.665,158.02 173.665,161.02 160.428,161.02 160.428,158.02 147.193,158.02 147.193,161.02 133.959,161.02 133.959,158.02 120.722,158.02 120.722,161.02 107.487,161.02 107.487,158.02 94.2527,158.02 94.2527,161.02 81.0156,161.02 81.0156,158.02 67.7812,158.02 67.7812,161.02 54.5467,161.02 54.5467,158.02 41.3096,158.02 41.3096,161.02 28.0751,161.02 28.0751,158.02 14.838,158.02 5.3395,158.02 5.3395,157.52 5.3395,153.815 2.3391,153.815 2.3391,150.109 5.3395,150.109 5.3395,146.402 2.3391,146.402 2.3391,142.698 5.3395,142.698 5.3395,138.991 2.3391,138.991 2.3391,135.284 5.3395,135.284 5.3395,131.58 2.3391,131.58 2.3391,127.873 5.3395,127.873 5.3395,124.166 2.3391,124.166 2.3391,120.462 5.3395,120.462 5.3395,116.755 2.3391,116.755 2.3391,113.048 5.3395,113.048 5.3395,109.344 2.3391,109.344 2.3391,105.637 5.3395,105.637 5.3395,101.931 2.3391,101.931 2.3391,98.2264 5.3395,98.2264 5.3395,94.5196 "/>
   <polygon id="_120954928" class="fil0 str0" points="249.341,49.1287 249.341,52.8355 252.341,52.8355 252.341,56.5424 249.341,56.5424 249.341,60.2465 252.341,60.2465 252.341,63.9533 249.341,63.9533 249.341,67.6601 252.341,67.6601 252.341,71.3643 249.341,71.3643 249.341,75.0711 252.341,75.0711 252.341,78.7779 252.341,82.2757 239.84,82.2757 226.605,82.2757 226.605,79.278 213.371,79.278 213.371,82.2757 200.134,82.2757 200.134,79.278 186.899,79.278 186.899,82.2757 173.665,82.2757 173.665,79.278 160.428,79.278 160.428,82.2757 147.193,82.2757 147.193,79.278 133.959,79.278 133.959,82.2757 120.722,82.2757 120.722,79.278 107.487,79.278 107.487,82.2757 94.2527,82.2757 94.2527,79.278 81.0156,79.278 81.0156,82.2757 67.7812,82.2757 67.7812,79.278 54.5467,79.278 54.5467,82.2757 41.3096,82.2757 41.3096,79.278 28.0751,79.278 28.0751,82.2757 14.838,82.2757 2.3391,82.2757 2.3391,78.7779 2.3391,75.0711 5.3395,75.0711 5.3395,71.3643 2.3391,71.3643 2.3391,67.6601 5.3395,67.6601 5.3395,63.9533 2.3391,63.9533 2.3391,60.2465 5.3395,60.2465 5.3395,56.5424 2.3391,56.5424 2.3391,52.8355 5.3395,52.8355 5.3395,49.1287 "/>
   <polygon id="_120954856" class="fil0 str0" points="249.341,7.2127 249.341,10.9195 252.341,10.9195 252.341,14.6264 249.341,14.6264 249.341,18.3305 252.341,18.3305 252.341,22.0373 249.341,22.0373 249.341,25.7441 252.341,25.7441 252.341,29.4483 249.341,29.4483 249.341,33.1551 252.341,33.1551 252.341,36.8619 252.341,40.3597 239.84,40.3597 226.605,40.3597 226.605,37.362 213.371,37.362 213.371,40.3597 200.134,40.3597 200.134,37.362 186.899,37.362 186.899,40.3597 173.665,40.3597 173.665,37.362 160.428,37.362 160.428,40.3597 147.193,40.3597 147.193,37.362 133.959,37.362 133.959,40.3597 120.722,40.3597 120.722,37.362 107.487,37.362 107.487,40.3597 94.2527,40.3597 94.2527,37.362 81.0156,37.362 81.0156,40.3597 67.7812,40.3597 67.7812,37.362 54.5467,37.362 54.5467,40.3597 41.3096,40.3597 41.3096,37.362 28.0751,37.362 28.0751,40.3597 14.838,40.3597 2.3391,40.3597 2.3391,36.8619 2.3391,33.1551 5.3395,33.1551 5.3395,29.4483 2.3391,29.4483 2.3391,25.7441 5.3395,25.7441 5.3395,22.0373 2.3391,22.0373 2.3391,18.3305 5.3395,18.3305 5.3395,14.6264 2.3391,14.6264 2.3391,10.9195 5.3395,10.9195 5.3395,7.2127 "/>
   <polygon id="_30813808" class="fil0 str0" points="260.773,40.8074 257.775,40.8074 257.775,37.1006 260.773,37.1006 260.773,33.3937 257.775,33.3937 257.775,29.6896 260.773,29.6896 260.773,25.9828 257.775,25.9828 257.775,22.276 260.773,22.276 260.773,18.5718 257.775,18.5718 257.775,14.865 260.773,14.865 260.773,11.1582 260.773,7.6604 261.273,7.6604 264.98,7.6604 264.98,10.6581 268.687,10.6581 268.687,7.6604 272.391,7.6604 272.391,10.6581 276.098,10.6581 276.098,7.6604 279.805,7.6604 279.805,10.6581 283.509,10.6581 283.509,7.6604 287.216,7.6604 287.216,10.6581 290.922,10.6581 290.922,7.6604 294.627,7.6604 294.627,10.6581 298.333,10.6581 298.333,7.6604 302.04,7.6604 302.04,10.6581 305.744,10.6581 305.744,7.6604 309.451,7.6604 309.451,10.6581 313.158,10.6581 313.158,7.6604 316.862,7.6604 316.862,10.6581 320.569,10.6581 320.569,7.6604 324.276,7.6604 324.776,7.6604 324.776,11.1582 324.776,14.865 327.774,14.865 327.774,18.5718 324.776,18.5718 324.776,22.276 327.774,22.276 327.774,25.9828 324.776,25.9828 324.776,29.6896 327.774,29.6896 327.774,33.3937 324.776,33.3937 324.776,37.1006 327.774,37.1006 327.774,40.8074 324.776,40.8074 "/>
   <polygon id="_30813736" class="fil0 str0" points="262.045,78.0454 259.047,78.0454 259.047,74.3386 262.045,74.3386 262.045,70.6317 259.047,70.6317 259.047,66.9276 262.045,66.9276 262.045,63.2208 259.047,63.2208 259.047,59.514 262.045,59.514 262.045,55.8098 259.047,55.8098 259.047,52.103 262.045,52.103 262.045,48.3962 262.045,44.8984 262.545,44.8984 266.251,44.8984 266.251,47.8961 269.958,47.8961 269.958,44.8984 273.662,44.8984 273.662,47.8961 277.369,47.8961 277.369,44.8984 281.076,44.8984 281.076,47.8961 284.78,47.8961 284.78,44.8984 288.487,44.8984 288.487,47.8961 292.194,47.8961 292.194,44.8984 295.898,44.8984 295.898,47.8961 299.605,47.8961 299.605,44.8984 303.312,44.8984 303.312,47.8961 307.016,47.8961 307.016,44.8984 310.723,44.8984 310.723,47.8961 314.429,47.8961 314.429,44.8984 318.134,44.8984 318.134,47.8961 321.84,47.8961 321.84,44.8984 325.547,44.8984 326.047,44.8984 326.047,48.3962 326.047,52.103 329.045,52.103 329.045,55.8098 326.047,55.8098 326.047,59.514 329.045,59.514 329.045,63.2208 326.047,63.2208 326.047,66.9276 329.045,66.9276 329.045,70.6317 326.047,70.6317 326.047,74.3386 329.045,74.3386 329.045,78.0454 326.047,78.0454 "/>
   <path id="_30813664" class="fil0 str0" d="M258.694 81.7603l0.8493 0c25.1317,0 44.1705,0 69.3023,0l0.8493 0 0 1.7515 0 1.8521 3.0004 0 0 1.8521 -3.0004 0 0 1.8547 3.0004 0 0 1.8521 -3.0004 0 0 1.8521 3.0004 0 0 1.8547 -3.0004 0 0 1.8521 3.0004 0 0 1.8521 -3.0004 0 0 1.8547 3.0004 0 0 1.8521 -3.0004 0 0 1.8521 3.0004 0 0 1.8547 -3.0004 0 0 1.8521 3.0004 0 0 1.8521 -3.0004 0 0 1.8547 3.0004 0 0 1.8521 -3.0004 0 0 1.8521 0 1.7515 -0.8493 0 -4.0772 0 0 -3.0004 -4.0772 0 0 3.0004 -4.0773 0 0 -3.0004 -4.0745 0 0 3.0004 -4.0773 0 0 -3.0004 -4.0772 0 0 3.0004 -4.0746 0 0 -3.0004 -4.0772 0 0 3.0004 -4.0772 0 0 -3.0004 -4.0773 0 0 3.0004 -4.0746 0 0 -3.0004 -4.0772 0 0 3.0004 -4.0772 0 0 -3.0004 -4.0772 0 0 3.0004 -4.0746 0 0 -3.0004 -4.0773 0 0 3.0004 -4.0772 0 -0.8493 0 0 -1.7515 0 -1.8521 -3.0004 0 0 -1.8521 3.0004 0 0 -1.8547 -3.0004 0 0 -1.8521 3.0004 0 0 -1.8521 -3.0004 0 0 -1.8547 3.0004 0 0 -1.8521 -3.0004 0 0 -1.8521 3.0004 0 0 -1.8547 -3.0004 0 0 -1.8521 3.0004 0 0 -1.8521 -3.0004 0 0 -1.8547 3.0004 0 0 -1.8521 -3.0004 0 0 -1.8521 3.0004 0 0 -1.8547 -3.0004 0 0 -1.8521 3.0004 0 0 -3.6036z"/>
   <path id="_30813592" class="fil0 str0" d="M259.032 120.267l0.852 0c25.1294,0 44.1698,0 69.2996,0l0.8494 0 0 1.7515 0 1.8521 3.0003 0 0 1.8521 -3.0003 0 0 1.8547 3.0003 0 0 1.8521 -3.0003 0 0 1.8521 3.0003 0 0 1.8547 -3.0003 0 0 1.8521 3.0003 0 0 1.8521 -3.0003 0 0 1.8547 3.0003 0 0 1.8521 -3.0003 0 0 1.8521 3.0003 0 0 1.8547 -3.0003 0 0 1.8521 3.0003 0 0 1.8521 -3.0003 0 0 1.8547 3.0003 0 0 1.8521 -3.0003 0 0 1.8521 0 1.7515 -0.8494 0 -4.0772 0 0 -3.0004 -4.0746 0 0 3.0004 -4.0772 0 0 -3.0004 -4.0772 0 0 3.0004 -4.0773 0 0 -3.0004 -4.0745 0 0 3.0004 -4.0773 0 0 -3.0004 -4.0772 0 0 3.0004 -4.0746 0 0 -3.0004 -4.0772 0 0 3.0004 -4.0772 0 0 -3.0004 -4.0773 0 0 3.0004 -4.0746 0 0 -3.0004 -4.0772 0 0 3.0004 -4.0772 0 0 -3.0004 -4.0772 0 0 3.0004 -4.0746 0 -0.852 0 0 -1.7515 0 -1.8521 -2.9977 0 0 -1.8521 2.9977 0 0 -1.8547 -2.9977 0 0 -1.8521 2.9977 0 0 -1.8521 -2.9977 0 0 -1.8547 2.9977 0 0 -1.8521 -2.9977 0 0 -1.8521 2.9977 0 0 -1.8547 -2.9977 0 0 -1.8521 2.9977 0 0 -1.8521 -2.9977 0 0 -1.8547 2.9977 0 0 -1.8521 -2.9977 0 0 -1.8521 2.9977 0 0 -1.8547 -2.9977 0 0 -1.8521 2.9977 0 0 -1.8521 0 -1.7515z"/>
   <polygon id="_30813520" class="fil0 str0" points="338.393,84.2227 348.244,84.2227 361.851,84.2227 361.851,81.2223 375.456,81.2223 375.456,84.2227 389.061,84.2227 389.061,81.2223 402.669,81.2223 402.669,84.2227 416.274,84.2227 416.274,81.2223 429.881,81.2223 429.881,84.2227 443.486,84.2227 443.486,81.2223 457.091,81.2223 457.091,84.2227 470.698,84.2227 470.698,81.2223 484.303,81.2223 484.303,84.2227 497.911,84.2227 497.911,81.2223 511.516,81.2223 511.516,84.2227 525.12,84.2227 525.12,81.2223 538.728,81.2223 538.728,84.2227 552.333,84.2227 552.333,81.2223 565.94,81.2223 565.94,84.2227 579.545,84.2227 589.396,84.2227 589.396,85.0747 589.396,89.1492 592.396,89.1492 592.396,93.2265 589.396,93.2265 589.396,97.3037 592.396,97.3037 592.396,101.378 589.396,101.378 589.396,105.456 592.396,105.456 592.396,109.533 589.396,109.533 589.396,113.61 592.396,113.61 592.396,117.685 589.396,117.685 589.396,121.762 592.396,121.762 592.396,125.839 589.396,125.839 589.396,129.914 592.396,129.914 592.396,133.991 589.396,133.991 589.396,138.068 592.396,138.068 592.396,142.145 589.396,142.145 589.396,146.22 592.396,146.22 592.396,150.297 589.396,150.297 589.396,154.374 589.396,155.224 579.545,155.224 565.94,155.224 565.94,158.224 552.333,158.224 552.333,155.224 538.728,155.224 538.728,158.224 525.12,158.224 525.12,155.224 511.516,155.224 511.516,158.224 497.911,158.224 497.911,155.224 484.303,155.224 484.303,158.224 470.698,158.224 470.698,155.224 457.091,155.224 457.091,158.224 443.486,158.224 443.486,155.224 429.881,155.224 429.881,158.224 416.274,158.224 416.274,155.224 402.669,155.224 402.669,158.224 389.061,158.224 389.061,155.224 375.456,155.224 375.456,158.224 361.851,158.224 361.851,155.224 348.244,155.224 338.393,155.224 338.393,154.374 338.393,150.297 335.393,150.297 335.393,146.22 338.393,146.22 338.393,142.145 335.393,142.145 335.393,138.068 338.393,138.068 338.393,133.991 335.393,133.991 335.393,129.914 338.393,129.914 338.393,125.839 335.393,125.839 335.393,121.762 338.393,121.762 338.393,117.685 335.393,117.685 335.393,113.61 338.393,113.61 338.393,109.533 335.393,109.533 335.393,105.456 338.393,105.456 338.393,101.378 335.393,101.378 335.393,97.3037 338.393,97.3037 338.393,93.2265 335.393,93.2265 335.393,89.1492 338.393,89.1492 338.393,85.0747 "/>
   <path id="_30813448" class="fil0 str0" d="M335.393 6.5383l12.8508 0 105.649 0c0,5.522 4.478,10 10,10 5.522,0 10,-4.478 10,-10l105.652 0 12.8482 0 0 1.7515 0 1.8521 -2.9978 0 0 1.8521 2.9978 0 0 1.8547 -2.9978 0 0 1.8521 2.9978 0 0 1.8521 -2.9978 0 0 1.8547 2.9978 0 0 1.8521 -2.9978 0 0 1.8521 2.9978 0 0 1.8547 -2.9978 0 0 1.8521 2.9978 0 0 1.8521 -2.9978 0 0 1.8547 2.9978 0 0 1.8521 -2.9978 0 0 1.8521 2.9978 0 0 1.8547 -2.9978 0 0 1.8521 2.9978 0 0 1.8521 0 1.7515 -12.8482 0 -13.6075 0 0 -3.0004 -13.6049 0 0 3.0004 -13.6075 0 0 -3.0004 -13.6049 0 0 3.0004 -13.6049 0 0 -3.0004 -13.6075 0 0 3.0004 -13.6049 0 0 -3.0004 -13.6075 0 0 3.0004 -13.6049 0 0 -3.0004 -13.6048 0 0 3.0004 -13.6075 0 0 -3.0004 -13.6049 0 0 3.0004 -13.6075 0 0 -3.0004 -13.6049 0 0 3.0004 -13.6049 0 0 -3.0004 -13.6075 0 0 3.0004 -13.6049 0 -12.8508 0 0 -1.7515 0 -1.8521 3.0004 0 0 -1.8521 -3.0004 0 0 -1.8547 3.0004 0 0 -1.8521 -3.0004 0 0 -1.8521 3.0004 0 0 -1.8547 -3.0004 0 0 -1.8521 3.0004 0 0 -1.8521 -3.0004 0 0 -1.8547 3.0004 0 0 -1.8521 -3.0004 0 0 -1.8521 3.0004 0 0 -1.8547 -3.0004 0 0 -1.8521 3.0004 0 0 -1.8521 -3.0004 0 0 -1.8547 3.0004 0 0 -1.8521 -3.0004 0 0 -1.8521 0 -1.7515z"/>
   <path id="_30813376" class="fil0 str0" d="M335.393 44.0889l12.8508 0 105.649 0c0,5.522 4.478,10 10,10 5.522,0 10,-4.478 10,-10l105.652 0 12.8482 0 0 1.7515 0 1.8521 -2.9978 0 0 1.8521 2.9978 0 0 1.8547 -2.9978 0 0 1.8521 2.9978 0 0 1.8521 -2.9978 0 0 1.8547 2.9978 0 0 1.8521 -2.9978 0 0 1.8521 2.9978 0 0 1.8547 -2.9978 0 0 1.8521 2.9978 0 0 1.8521 -2.9978 0 0 1.8547 2.9978 0 0 1.8521 -2.9978 0 0 1.8521 2.9978 0 0 1.8547 -2.9978 0 0 1.8521 2.9978 0 0 1.8521 0 1.7515 -12.8482 0 -13.6075 0 0 -3.0004 -13.6049 0 0 3.0004 -13.6075 0 0 -3.0004 -13.6049 0 0 3.0004 -13.6049 0 0 -3.0004 -13.6075 0 0 3.0004 -13.6049 0 0 -3.0004 -13.6075 0 0 3.0004 -13.6049 0 0 -3.0004 -13.6048 0 0 3.0004 -13.6075 0 0 -3.0004 -13.6049 0 0 3.0004 -13.6075 0 0 -3.0004 -13.6049 0 0 3.0004 -13.6049 0 0 -3.0004 -13.6075 0 0 3.0004 -13.6049 0 -12.8508 0 0 -1.7515 0 -1.8521 3.0004 0 0 -1.8521 -3.0004 0 0 -1.8547 3.0004 0 0 -1.8521 -3.0004 0 0 -1.8521 3.0004 0 0 -1.8547 -3.0004 0 0 -1.8521 3.0004 0 0 -1.8521 -3.0004 0 0 -1.8547 3.0004 0 0 -1.8521 -3.0004 0 0 -1.8521 3.0004 0 0 -1.8547 -3.0004 0 0 -1.8521 3.0004 0 0 -1.8521 -3.0004 0 0 -1.8547 3.0004 0 0 -1.8521 -3.0004 0 0 -1.8521 0 -1.7515z"/>
  </g>
 </g>
</svg>
